<svg width="28" height="28" viewBox="0 0 28 28" fill="none" xmlns="http://www.w3.org/2000/svg">
<path d="M14 0C6.268 0 0 6.26802 0 14C0 21.732 6.268 28 14 28C21.7319 28 28 21.732 28 14C28 6.26802 21.732 0 14 0Z" fill="#F0A931"/>
<path d="M14 0C6.268 0 0 6.26802 0 14C0 21.732 6.268 28 14 28C21.7319 28 28 21.732 28 14C28 6.26802 21.732 0 14 0Z" fill="#DB8D24"/>
<path d="M25.3878 13.7063C25.368 12.9246 25.2695 12.1625 25.0998 11.4277C25.0786 11.3358 25.0563 11.2444 25.0329 11.1534C24.935 10.7731 24.8176 10.4007 24.6825 10.0368C24.5268 9.6172 24.3474 9.20901 24.1453 8.81436C24.1034 8.73249 24.0605 8.65121 24.0167 8.5705C23.5462 7.7045 22.9663 6.90677 22.2962 6.19484C21.7107 5.57277 21.0563 5.01637 20.3447 4.53828C20.0493 4.33978 19.7442 4.1545 19.43 3.98382C19.3493 3.93998 19.268 3.89709 19.1861 3.85516C17.6307 3.05845 15.8679 2.60895 14.0002 2.60895C13.9995 2.60895 13.9988 2.60896 13.9981 2.60896C13.9369 2.60898 13.876 2.61032 13.8151 2.61129C13.7377 2.61252 13.6607 2.61455 13.5837 2.61732C13.5714 2.61776 13.5592 2.61824 13.5469 2.61871C13.4791 2.62137 13.4114 2.62438 13.3439 2.6282C13.3118 2.63003 13.2798 2.63222 13.2478 2.63429C13.1969 2.63763 13.1459 2.6407 13.0952 2.64468C13.0084 2.65151 12.9218 2.65899 12.8355 2.66775C12.4526 2.70664 12.0752 2.7645 11.7045 2.84036C11.3337 2.91624 10.9695 3.01012 10.6128 3.12106C10.4344 3.17654 10.258 3.23628 10.0835 3.30016C9.64735 3.45987 9.22366 3.64548 8.81433 3.85514C8.73245 3.89708 8.65117 3.93998 8.57046 3.9838C8.40906 4.07149 8.25001 4.16295 8.09344 4.2581C7.89063 4.38131 7.69245 4.51134 7.49819 4.64662C7.39251 4.72021 7.28767 4.79492 7.18464 4.87197C5.86886 5.85597 4.77293 7.11778 3.9838 8.57045C3.93996 8.65116 3.89708 8.73244 3.85514 8.81432C3.71222 9.09336 3.58119 9.37946 3.4612 9.67126C3.41857 9.77497 3.37741 9.87939 3.33777 9.9846C3.19442 10.365 3.07012 10.7548 2.96757 11.1534C2.94416 11.2444 2.92184 11.3358 2.90064 11.4276C2.731 12.1625 2.63245 12.9246 2.61266 13.7062C2.61019 13.8039 2.60895 13.9019 2.60895 14.0002C2.60895 14.0829 2.6101 14.1653 2.61208 14.2475C2.61395 14.3257 2.61655 14.4037 2.61979 14.4815C2.62005 14.4758 2.62047 14.4701 2.62072 14.4643C2.66359 15.5321 2.85173 16.5624 3.16889 17.5349C3.26199 17.8204 3.36582 18.101 3.48036 18.3761C4.2602 20.2487 5.52534 21.8682 7.11885 23.078C7.31571 23.2275 7.51762 23.3706 7.72422 23.5072C8.22887 23.8411 8.76123 24.1364 9.31783 24.3877C9.54875 24.4919 9.78402 24.5882 10.0228 24.6772C11.1816 25.1091 12.4293 25.3579 13.7313 25.3881C13.8207 25.3902 13.9103 25.3915 14.0002 25.3915C14.2197 25.3915 14.4376 25.3847 14.654 25.3724C20.4823 25.0425 25.1378 20.3316 25.3806 14.4805C25.3806 14.4808 25.3807 14.4812 25.3807 14.4815C25.3839 14.4037 25.3865 14.3257 25.3884 14.2475C25.3904 14.1653 25.3915 14.0829 25.3915 14.0002C25.3915 13.902 25.3903 13.804 25.3878 13.7063Z" fill="#FAAF4A"/>
<path d="M17.6601 13.9708C17.3981 13.9344 17.1353 13.8951 16.8825 13.8555C16.7084 13.8282 16.5394 13.8008 16.3785 13.7741C16.9972 13.5199 17.7153 13.2373 18.333 13.0276L17.6601 13.9708Z" fill="#FAAF4A"/>
<mask id="mask0_8988_38152" style="mask-type:alpha" maskUnits="userSpaceOnUse" x="0" y="0" width="28" height="28">
<path d="M14 -6.10352e-05C6.268 -6.10352e-05 0 6.26796 0 13.9999C0 21.7319 6.268 27.9999 14 27.9999C21.7319 27.9999 28 21.7319 28 13.9999C28 6.26796 21.732 -6.10352e-05 14 -6.10352e-05Z" fill="#7F39CD"/>
</mask>
<g mask="url(#mask0_8988_38152)">
<rect x="16.2346" y="-1.26715" width="5.59999" height="29.3965" transform="rotate(35 16.2346 -1.26715)" fill="url(#paint0_linear_8988_38152)" fill-opacity="0.14"/>
<rect x="24.4897" y="3.63837" width="3.45178" height="29.1162" transform="rotate(35 24.4897 3.63837)" fill="url(#paint1_linear_8988_38152)" fill-opacity="0.14"/>
</g>
<path d="M13.7354 19.4726C13.7536 19.3571 13.7674 19.2402 13.7756 19.1222C13.8456 18.1176 14.0873 16.6466 14.2389 15.7866C14.4346 16.2411 14.7361 16.9563 15.0155 17.6782L13.7354 19.4726Z" fill="#FAAF4A"/>
<path d="M20.3443 4.53828C20.0489 4.33978 19.7438 4.1545 19.4296 3.98382C19.3489 3.93998 19.2676 3.89709 19.1858 3.85516C17.6303 3.05845 15.8676 2.60895 13.9999 2.60895C13.9992 2.60895 13.9985 2.60896 13.9978 2.60896C13.9366 2.60898 13.8757 2.61032 13.8147 2.61129C13.7374 2.61252 13.6603 2.61455 13.5834 2.61732C13.5711 2.61776 13.5588 2.61824 13.5465 2.61871C13.4787 2.62137 13.411 2.62438 13.3435 2.6282C13.3114 2.63003 13.2795 2.63221 13.2475 2.63429C13.1965 2.63763 13.1456 2.6407 13.0948 2.64468C13.008 2.65151 12.9214 2.65899 12.8352 2.66775C12.4522 2.70664 12.0749 2.7645 11.7041 2.84036C11.3333 2.91624 10.9691 3.01012 10.6124 3.12106C10.4341 3.17654 10.2576 3.23628 10.0832 3.30016C9.64698 3.45987 9.22329 3.64548 8.81396 3.85514C8.73208 3.89708 8.65081 3.93998 8.5701 3.9838C8.40869 4.07149 8.24965 4.16295 8.09307 4.2581C7.89026 4.38131 7.69209 4.51134 7.49783 4.64662C7.39215 4.72021 7.2873 4.79492 7.18427 4.87197C5.8685 5.85597 4.77257 7.11778 3.98344 8.57045C3.93959 8.65116 3.89671 8.73244 3.85477 8.81431C3.71185 9.09336 3.58083 9.37946 3.46084 9.67126C3.41821 9.77497 3.37704 9.87939 3.3374 9.9846C3.19405 10.365 3.06975 10.7548 2.96721 11.1534C2.9438 11.2444 2.92148 11.3358 2.90027 11.4276C2.73063 12.1625 2.63208 12.9246 2.6123 13.7062C2.60983 13.8039 2.60858 13.9019 2.60858 14.0002C2.60858 14.0829 2.60973 14.1653 2.61171 14.2475C2.61359 14.3257 2.61619 14.4037 2.61943 14.4815C2.61968 14.4758 2.6201 14.4701 2.62036 14.4643C2.88144 8.40446 7.87578 3.5715 13.9999 3.5715C14.0136 3.5715 14.0272 3.57195 14.0409 3.572C16.4396 3.58048 18.6633 4.33039 20.4953 5.60451C21.1999 6.09455 21.8465 6.66196 22.4228 7.29471C23.4453 8.41745 24.2466 9.74519 24.7573 11.2093C25.1169 12.2402 25.3327 13.3386 25.3803 14.4805C25.3803 14.4808 25.3803 14.4812 25.3804 14.4815C25.3836 14.4037 25.3862 14.3257 25.3881 14.2475C25.39 14.1653 25.3912 14.0829 25.3912 14.0002C25.3912 13.9019 25.3899 13.8039 25.3875 13.7062C25.3677 12.9246 25.2691 12.1625 25.0995 11.4276C25.0783 11.3358 25.056 11.2443 25.0326 11.1534C24.9347 10.7731 24.8173 10.4007 24.6822 10.0368C24.5265 9.61716 24.3471 9.20896 24.145 8.81431C24.1031 8.73244 24.0602 8.65116 24.0163 8.57045C23.5459 7.70445 22.966 6.90672 22.2959 6.19479C21.7103 5.57275 21.0559 5.01636 20.3443 4.53828Z" fill="#784909"/>
<mask id="mask1_8988_38152" style="mask-type:alpha" maskUnits="userSpaceOnUse" x="3" y="2" width="22" height="21">
<path d="M24.3393 12.4123C24.3213 11.7041 24.232 11.0136 24.0783 10.3477C24.0591 10.2645 24.0389 10.1817 24.0177 10.0992C23.929 9.75463 23.8226 9.41721 23.7003 9.08754C23.5591 8.70731 23.3966 8.33745 23.2135 7.97988C23.1755 7.90569 23.1366 7.83205 23.0969 7.75892C22.6707 6.97426 22.1452 6.25147 21.5381 5.60641C21.0076 5.04276 20.4146 4.53863 19.7699 4.10544C19.5022 3.92559 19.2258 3.75771 18.9411 3.60306C18.868 3.56334 18.7943 3.52448 18.7201 3.48648C17.3108 2.76461 15.7136 2.35733 14.0213 2.35733C14.0207 2.35733 14.0201 2.35734 14.0194 2.35734C13.964 2.35736 13.9088 2.35857 13.8535 2.35946C13.7835 2.36057 13.7136 2.36241 13.6439 2.36492C13.6328 2.36532 13.6217 2.36575 13.6106 2.36617C13.5491 2.36858 13.4878 2.37131 13.4266 2.37477C13.3976 2.37643 13.3686 2.37841 13.3396 2.3803C13.2935 2.38332 13.2473 2.3861 13.2013 2.38971C13.1227 2.3959 13.0442 2.40267 12.966 2.41061C12.619 2.44585 12.2772 2.49827 11.9412 2.56701C11.6053 2.63576 11.2753 2.72083 10.9521 2.82134C10.7905 2.87161 10.6306 2.92574 10.4725 2.98362C10.0773 3.12832 9.69341 3.29651 9.32253 3.48647C9.24834 3.52447 9.1747 3.56334 9.10157 3.60305C8.95533 3.6825 8.81122 3.76537 8.66935 3.85158C8.48559 3.96322 8.30603 4.08104 8.13002 4.2036C8.03426 4.27029 7.93927 4.33798 7.84591 4.40779C6.65373 5.29937 5.66074 6.44266 4.94573 7.75888C4.906 7.83201 4.86715 7.90565 4.82915 7.97984C4.69965 8.23267 4.58094 8.4919 4.47222 8.75629C4.43359 8.85026 4.39629 8.94487 4.36038 9.0402C4.23049 9.38489 4.11787 9.73805 4.02495 10.0992C4.00374 10.1816 3.98352 10.2645 3.9643 10.3477C3.8106 11.0135 3.72131 11.704 3.70338 12.4123C3.70114 12.5008 3.70001 12.5896 3.70001 12.6787C3.70001 12.7535 3.70105 12.8282 3.70285 12.9027C3.70455 12.9735 3.7069 13.0442 3.70984 13.1147C3.71007 13.1095 3.71045 13.1043 3.71068 13.0991C3.74952 14.0666 3.91999 15.0002 4.20736 15.8813C4.29171 16.14 4.38579 16.3942 4.48958 16.6435C5.19617 18.3402 6.34247 19.8076 7.7863 20.9038C7.96467 21.0392 8.14762 21.1689 8.33481 21.2927C8.79206 21.5951 9.27442 21.8627 9.77874 22.0904C9.98797 22.1849 10.2011 22.2721 10.4175 22.3528C11.4674 22.744 12.598 22.9695 13.7776 22.9969C13.8587 22.9988 13.9398 23 14.0213 23C14.2202 23 14.4176 22.9938 14.6137 22.9827C19.8945 22.6838 24.1128 18.4153 24.3328 13.1138C24.3328 13.1141 24.3328 13.1144 24.3328 13.1147C24.3358 13.0442 24.3381 12.9735 24.3398 12.9027C24.3416 12.8282 24.3426 12.7536 24.3426 12.6787C24.3426 12.5896 24.3415 12.5008 24.3393 12.4123Z" fill="#DB8D24"/>
</mask>
<g mask="url(#mask1_8988_38152)">
<path d="M9.41695 13.0416C9.41695 12.0273 9.91432 11.4456 10.6657 10.7644C11.5264 9.9841 12.2954 9.73599 13.4571 9.73599C14.9997 9.73599 15.8812 9.8829 16.983 10.544C17.8244 11.0489 18.086 11.6501 18.5256 12.5274C18.7833 13.0416 18.7472 15.353 18.9664 17.1552C19.18 18.911 19.0815 19.9536 19.6275 21.636C20.9863 25.8231 20.766 30.304 20.2518 30.7447C19.4805 31.4058 11.033 32.2139 9.93118 31.0386C8.06734 29.0503 8.40506 27.2965 8.53547 24.5743C8.66509 21.8685 9.19658 17.6694 9.19658 17.6694C9.19658 17.6694 9.41695 13.7027 9.41695 13.0416Z" fill="#784909"/>
<path d="M12.6976 10.138L10.6638 7.89288C10.2707 7.3327 9.39696 7.6754 9.48135 8.35685L9.46548 13.7687L12.6976 10.138Z" fill="#784909"/>
<path d="M15.6792 10.0544L17.8276 7.91874C18.2495 7.3799 19.1042 7.76786 18.9842 8.44396L18.7168 13.8492L15.6792 10.0544Z" fill="#784909"/>
<path d="M10.9815 16.4743C10.9815 16.4743 8.36827 16.8341 7.47092 15.2993C6.57364 13.7646 6.26175 13.5089 5.88856 13.541C5.25233 13.5956 4.72547 13.8669 4.80985 14.7698C4.85853 15.2902 5.50104 18.2787 9.89712 18.1852C9.89712 18.1852 11.6055 17.4839 10.9815 16.4743Z" fill="#784909"/>
<ellipse cx="5.49484" cy="13.6558" rx="0.220371" ry="0.0734571" transform="rotate(-17.2155 5.49484 13.6558)" fill="#784909"/>
<ellipse cx="5.88405" cy="13.5894" rx="0.196756" ry="0.0734572" transform="rotate(-1.71546 5.88405 13.5894)" fill="#784909"/>
<path d="M20.399 20.9051C20.5135 20.176 20.4643 19.1952 20.2783 18.4808C20.101 17.7998 19.7611 17.327 19.1773 16.934C19.0504 16.8485 18.8872 16.779 18.748 16.843C18.5855 16.9177 18.5017 17.128 18.5287 17.3049C18.6477 18.0851 18.4899 19.3463 17.9016 20.4605C17.7657 20.7179 17.5021 20.7771 17.4654 21.195C17.4344 21.5485 17.5878 21.9103 17.7547 22.2234C17.9905 22.6657 18.2176 22.9854 18.7096 23.0808C19.5911 23.2518 20.2952 21.5663 20.399 20.9051Z" fill="#784909"/>
<path d="M19.1542 20.8745C18.863 20.534 18.4354 20.2244 18.0006 20.3325C17.7718 20.3894 17.5812 20.559 17.4654 20.7643C17.4269 20.8326 17.3954 20.9078 17.3684 20.9864C17.2379 21.6282 17.436 22.4466 17.963 22.7768C18.3267 23.0045 18.7839 23.2116 19.1985 22.999C19.4381 22.8761 19.6151 22.646 19.7077 22.3897C19.7155 22.3442 19.7208 22.2983 19.7229 22.2527C19.7464 21.7442 19.4851 21.2614 19.1542 20.8745Z" fill="#784909"/>
</g>
<mask id="mask2_8988_38152" style="mask-type:alpha" maskUnits="userSpaceOnUse" x="3" y="2" width="22" height="21">
<path d="M24.3393 12.055C24.3213 11.3467 24.232 10.6562 24.0783 9.9904C24.0591 9.90717 24.0389 9.82433 24.0177 9.74189C23.929 9.3973 23.8226 9.05988 23.7003 8.73021C23.5591 8.34998 23.3966 7.98012 23.2135 7.62255C23.1755 7.54836 23.1366 7.47472 23.0969 7.40159C22.6707 6.61693 22.1452 5.89413 21.5381 5.24908C21.0076 4.68543 20.4146 4.1813 19.7699 3.74811C19.5022 3.56826 19.2258 3.40038 18.9411 3.24573C18.868 3.20601 18.7943 3.16715 18.7201 3.12915C17.3108 2.40728 15.7136 2 14.0213 2L14.0194 2.00001C13.964 2.00003 13.9088 2.00124 13.8535 2.00213C13.7835 2.00324 13.7136 2.00508 13.6439 2.00759C13.6328 2.00799 13.6217 2.00842 13.6106 2.00884C13.5491 2.01125 13.4878 2.01398 13.4266 2.01744C13.3976 2.0191 13.3686 2.02108 13.3396 2.02296C13.2935 2.02599 13.2473 2.02877 13.2013 2.03238C13.1227 2.03857 13.0442 2.04534 12.966 2.05327C12.619 2.08852 12.2772 2.14094 11.9412 2.20968C11.6053 2.27843 11.2753 2.3635 10.9521 2.46401C10.7905 2.51428 10.6306 2.56841 10.4725 2.62629C10.0773 2.77099 9.69341 2.93918 9.32253 3.12914C9.24834 3.16714 9.1747 3.20601 9.10157 3.24572C8.95533 3.32516 8.81122 3.40804 8.66935 3.49425C8.48559 3.60589 8.30603 3.72371 8.13002 3.84627C8.03426 3.91296 7.93927 3.98065 7.84591 4.05046C6.65373 4.94204 5.66074 6.08533 4.94573 7.40155C4.906 7.47468 4.86715 7.54832 4.82915 7.62251C4.69965 7.87534 4.58094 8.13457 4.47222 8.39896C4.43359 8.49293 4.39629 8.58754 4.36038 8.68287C4.23049 9.02756 4.11787 9.38072 4.02495 9.74186C4.00374 9.8243 3.98352 9.90714 3.9643 9.99037C3.8106 10.6562 3.72131 11.3467 3.70338 12.0549C3.70114 12.1434 3.70001 12.2322 3.70001 12.3213C3.70001 12.3962 3.70105 12.4709 3.70285 12.5454C3.70455 12.6162 3.7069 12.6869 3.70984 12.7574C3.71007 12.7522 3.71045 12.747 3.71068 12.7418C3.74952 13.7093 3.91999 14.6428 4.20736 15.524C4.29171 15.7827 4.38579 16.0369 4.48958 16.2861C5.19617 17.9829 6.34247 19.4503 7.78631 20.5464C7.96467 20.6819 8.14762 20.8115 8.33481 20.9353C8.79206 21.2378 9.27442 21.5054 9.77874 21.7331C9.98797 21.8275 10.2011 21.9148 10.4175 21.9954C11.4674 22.3867 12.598 22.6122 13.7776 22.6396C13.8587 22.6414 13.9398 22.6426 14.0213 22.6426C14.2202 22.6426 14.4176 22.6364 14.6137 22.6253C19.8945 22.3264 24.1128 18.058 24.3328 12.7565L24.3328 12.7574C24.3358 12.6869 24.3381 12.6162 24.3398 12.5454C24.3416 12.4709 24.3426 12.3962 24.3426 12.3213C24.3426 12.2323 24.3415 12.1435 24.3393 12.055Z" fill="#DB8D24"/>
</mask>
<g mask="url(#mask2_8988_38152)">
<path d="M9.41692 12.6839C9.41692 11.6697 9.91429 11.0879 10.6657 10.4067C11.5264 9.62644 12.2953 9.37833 13.4571 9.37833C14.9997 9.37833 15.8811 9.52523 16.983 10.1864C17.8244 10.6912 18.086 11.2924 18.5256 12.1697C18.7833 12.6839 18.7471 14.9953 18.9664 16.7975C19.18 18.5534 19.0815 19.5959 19.6275 21.2784C20.9863 25.4654 20.7659 29.9463 20.2517 30.3871C19.4804 31.0482 11.0329 31.8562 9.93115 30.6809C8.06731 28.6927 8.40503 26.9388 8.53544 24.2167C8.66506 21.5109 9.19655 17.3117 9.19655 17.3117C9.19655 17.3117 9.41692 13.345 9.41692 12.6839Z" fill="#DB8D24"/>
<path d="M12.6976 9.78071L10.6638 7.53558C10.2707 6.9754 9.39693 7.3181 9.48132 7.99955L9.46545 13.4114L12.6976 9.78071Z" fill="#DB8D24"/>
<path d="M15.6791 9.69705L17.8276 7.56144C18.2495 7.0226 19.1041 7.41056 18.9842 8.08666L18.7168 13.4919L15.6791 9.69705Z" fill="#DB8D24"/>
<ellipse cx="12.11" cy="12.5006" rx="1.0284" ry="1.0284" fill="#784909"/>
<ellipse cx="15.636" cy="12.5006" rx="1.0284" ry="1.0284" fill="#784909"/>
<ellipse cx="12.11" cy="12.3826" rx="1.0284" ry="1.0284" fill="#FAAF4A"/>
<ellipse cx="15.636" cy="12.3826" rx="1.0284" ry="1.0284" fill="#FAAF4A"/>
<path d="M13.13 14.1185C13.2065 14.1185 13.2685 14.1803 13.2685 14.2566C13.2685 14.3835 13.3721 14.4868 13.4994 14.4868C13.6268 14.4868 13.7304 14.3835 13.7304 14.2566C13.7304 14.2553 13.7307 14.2541 13.7307 14.2529C13.7307 14.2516 13.7304 14.2504 13.7304 14.2492V13.9946C13.6103 13.9392 13.5264 13.8231 13.5264 13.7464C13.5264 13.6425 13.6797 13.5584 13.8689 13.5584C14.0581 13.5584 14.2114 13.6425 14.2114 13.7464C14.2114 13.8231 14.1275 13.9392 14.0075 13.9946V14.2492C14.0075 14.2504 14.0071 14.2516 14.0071 14.2529C14.0071 14.2541 14.0075 14.2553 14.0075 14.2566C14.0075 14.3835 14.111 14.4868 14.2384 14.4868C14.3657 14.4868 14.4693 14.3835 14.4693 14.2566C14.4693 14.1803 14.5314 14.1185 14.6078 14.1185C14.6843 14.1185 14.7464 14.1803 14.7464 14.2566C14.7464 14.5358 14.5184 14.763 14.2384 14.763C14.0928 14.763 13.9616 14.7012 13.8689 14.603C13.7762 14.7012 13.645 14.763 13.4994 14.763C13.2194 14.763 12.9914 14.5358 12.9914 14.2566C12.9914 14.1803 13.0535 14.1185 13.13 14.1185Z" fill="#784909"/>
<path d="M10.979 16.1152C10.979 16.1152 8.36577 16.4749 7.46842 14.9401C6.57113 13.4054 6.25925 13.1498 5.88606 13.1818C5.24983 13.2364 4.72297 13.5078 4.80735 14.4107C4.85603 14.931 5.49854 17.9196 9.89462 17.826C9.89462 17.826 11.603 17.1247 10.979 16.1152Z" fill="#DB8D24"/>
<ellipse cx="5.49231" cy="13.2966" rx="0.220371" ry="0.0734571" transform="rotate(-17.2155 5.49231 13.2966)" fill="#DB8D24"/>
<ellipse cx="5.88155" cy="13.2303" rx="0.196756" ry="0.0734572" transform="rotate(-1.71546 5.88155 13.2303)" fill="#DB8D24"/>
<path d="M20.399 20.5478C20.5135 19.8187 20.4643 18.8379 20.2783 18.1235C20.101 17.4425 19.7611 16.9697 19.1773 16.5767C19.0503 16.4912 18.8871 16.4217 18.748 16.4857C18.5855 16.5604 18.5017 16.7707 18.5287 16.9476C18.6477 17.7278 18.4899 18.989 17.9016 20.1032C17.7656 20.3606 17.502 20.4198 17.4654 20.8377C17.4344 21.1912 17.5878 21.553 17.7547 21.8661C17.9904 22.3084 18.2176 22.6281 18.7096 22.7235C19.5911 22.8945 20.2951 21.209 20.399 20.5478Z" fill="#DB8D24"/>
<path d="M19.1542 20.5172C18.8629 20.1767 18.4353 19.8671 18.0006 19.9752C17.7717 20.0321 17.5812 20.2017 17.4654 20.407C17.4269 20.4753 17.3954 20.5505 17.3684 20.6291C17.2378 21.2709 17.436 22.0893 17.963 22.4195C18.3266 22.6472 18.7838 22.8543 19.1984 22.6417C19.4381 22.5188 19.615 22.2887 19.7076 22.0324C19.7155 21.9869 19.7208 21.941 19.7229 21.8954C19.7463 21.3869 19.4851 20.9041 19.1542 20.5172Z" fill="#DB8D24"/>
<ellipse cx="12.1102" cy="12.3832" rx="0.734571" ry="0.734571" fill="#784909"/>
<ellipse cx="15.6358" cy="12.3832" rx="0.734571" ry="0.734571" fill="#784909"/>
</g>
<defs>
<linearGradient id="paint0_linear_8988_38152" x1="19.0346" y1="-1.26715" x2="19.0346" y2="28.1294" gradientUnits="userSpaceOnUse">
<stop stop-color="white"/>
<stop offset="1" stop-color="white" stop-opacity="0.5"/>
</linearGradient>
<linearGradient id="paint1_linear_8988_38152" x1="26.2156" y1="3.63837" x2="26.2156" y2="32.7546" gradientUnits="userSpaceOnUse">
<stop stop-color="white"/>
<stop offset="1" stop-color="white" stop-opacity="0.5"/>
</linearGradient>
</defs>
</svg>
